<?xml version="1.0"?>
<svg xmlns="http://www.w3.org/2000/svg" xmlns:xlink="http://www.w3.org/1999/xlink" xmlns:svgjs="http://svgjs.com/svgjs" version="1.1" width="512" height="512" x="0" y="0" viewBox="0 0 61 60" style="enable-background:new 0 0 512 512" xml:space="preserve"><g><path xmlns="http://www.w3.org/2000/svg" id="Shape" d="m57 28.13c.3337301-4.3760071-2.7303973-8.2821185-7.06-9-.34-.39.38.34-1.54-1.58.9546478-.5636973 2.07143-.7891675 3.17-.64 9.33 1.39 10.69-6.27 5.43-8.5 1.38-2.18.86-4-.23-5.12s-2.94-1.61-5.13-.23c-1.46-3.51-5-3.79-6.9-1.89-1.26 1.24-1.74 3.72-1.38 7.36.0968383 1.12387212-.1962567 2.2468143-.83 3.18l-1.39-1.39c-.8701188-.84448612-2.0763327-1.24869627-3.279603-1.09901644-1.2032704.14967983-2.2736929.83709034-2.910397 1.86901644l-2.56 4.12c-5-8.33-18-8.26-22.87.15-2.5205224-1.1912902-5.1491424-2.1389329-7.85-2.83-.27301137-.0679073-.56199889-.0176733-.79607966.1383805-.23408077.1560539-.39159963.4034908-.43392034.6816195-.06.4-1.5 9.85 1.18 13.78.27874671.4080118.58619073.7956586.92 1.16-1.59298225.6447889-2.59607973 2.2350302-2.4918435 3.950396.10423624 1.7153659 1.29250781 3.172446 2.9518435 3.619604v3.14c0 11.5979797 9.4020203 21 21 21h12c11.5979797 0 21-9.4020203 21-21v-3.14c1.751125-.466857 2.9695753-2.0527103 2.9695753-3.865s-1.2184503-3.398143-2.9695753-3.865zm-11.64-19.77c-.27-2.87 0-5 .76-5.77.3755332-.3786253.8867249-.59159665 1.42-.59159665s1.0444668.21297135 1.42.59159665c.5995603.656404.9955973 1.47279613 1.14 2.35.0731277.353573.3311726.64026983.6751233.75008541s.7203892.02569478.9848767-.22008541c.84-.77 2.43-1.9 3.56-.76s0 2.71-.76 3.55c-.2457802.2644875-.329901.64092598-.2200854.98487667.1098156.34395068.3965124.60199559.7500854.67512333.8826044.1493388 1.7026393.5524068 2.36 1.16.382614.4214955.5747626.9819557.5312474 1.5495456-.0435153.56759-.3188533 1.0922095-.7612474 1.4504544-1.48 1.2-4 1-5.4.83-1.7219331-.2316192-3.4684677.1854105-4.9 1.17l-3-3c1.0370472-1.3463676 1.548876-3.0240288 1.44-4.72zm9.64 19.64h-10.75l4.69-2.91c1.2547347-.7751829 1.9810923-2.1779369 1.89-3.65 2.6928146 1.0176747 4.3914247 3.6898287 4.17 6.56zm-15.28-16.26 8.58 8.57c.4132975.4396091.6060375 1.0423108.5245125 1.6401608s-.4286003 1.1269405-.9445125 1.4398392l-4 2.45-3.45-3.45c-.1877666-.1893127-.4433625-.2957983-.71-.2957983s-.5222334.1064856-.71.2957983c-.3877236.3900375-.3877236 1.0199625 0 1.41l3.13 3.13-1.68 1.07h-13.67l4.15-6.67 3.17 3.18c.1887188.1871865.444197.2915368.71.29.4062651.0023626.77358-.2413038.929371-.6165185.1557909-.3752147.0690889-.807391-.219371-1.0934815l-3.53-3.5 3.25-5.23 4.5 4.49c.1887188.1871865.444197.2915368.71.29.4000752-.0056201.7582884-.2491743.910632-.6191515.1523435-.3699773.0694877-.7951482-.210632-1.0808485l-4.82-4.83.29-.46c.3142422-.5178965.8462808-.865458 1.446794-.9451377s1.2047797.1171098 1.643206.5351377zm-8.56 5.45-1.37 2.19c-.6943488-2.7497159-2.7586687-4.946364-5.46-5.81-.3444764-.1556276-.7472657-.1037179-1.0410285.1341631-.2937627.2378811-.4282879.6210741-.3476868.9903807.0806011.3693067.3625518.6616039.7287153.7554562 3.23 1.15 5.14 4.26 4 7.35l-3.24 5.2h-9.26c1.3374245-2.8884642 1.0284837-6.2715567-.81-8.87.735213-1.7496535 2.1952496-3.0928871 4-3.68.5035862-.1984283.7578837-.7615185.5737784-1.2705156-.1841054-.5089971-.7397776-.7791195-1.2537784-.6094844-2.0080846.6851069-3.694783 2.0835719-4.74 3.93-.5111508-.4254462-1.0525802-.8131364-1.62-1.16 4.36-7.53 16.3-6.93 19.84.85zm-28.89-2.43c3.05.87 8.66 2.87 10.29 5.26 1.79 2.63 1.88 5.84.33 7.78l-4.12-4.94c-.22864998-.2750945-.58669244-.407309-.93925626-.3468396-.35256382.0604695-.64608617.3044361-.77000001.64-.12391384.335564-.05939371.7117451.16925627.9868396l3.22 3.86h-5.28c-.73959185-.5569913-1.38164353-1.2328351-1.9-2-1.62-2.38-1.35-8.17-1-11.24zm53.73 19.24h-6c-.5522847 0-1 .4477153-1 1s.4477153 1 1 1h5v3c0 10.4934102-8.5065898 19-19 19h-12c-10.4934102 0-19-8.5065898-19-19v-3h39c.5522847 0 1-.4477153 1-1s-.4477153-1-1-1h-40c-1.1045695 0-2-.8954305-2-2s.8954305-2 2-2h52c1.1045695 0 2 .8954305 2 2s-.8954305 2-2 2z" fill="#757575" data-original="#000000" style=""/></g></svg>
